<?xml version="1.0" encoding="utf-8"?><svg xmlns="http://www.w3.org/2000/svg" xmlns:xlink="http://www.w3.org/1999/xlink" width="1012" height="200" preserveAspectRatio="xMidYMid" viewBox="0 0 1012 200" style="z-index:1;margin-right:-2px;display:block;animation-play-state:paused" ><g transform="translate(506,100) scale(1,1) translate(-506,-100)" style="transform:matrix(1, 0, 0, 1, 0, 0);animation-play-state:paused" ><linearGradient id="lg-0.8279266948992363" x1="0" x2="1" y1="0" y2="0" style="animation-play-state:paused" ><stop stop-color="#6de8e2" offset="0" style="animation-play-state:paused" ></stop>

  
<stop stop-color="#46168f" offset="1" style="animation-play-state:paused" ></stop></linearGradient>
<path d="M 0 0 L 0 116.808 Q 72.2857 147.867 144.571 128.491 T 289.143 126.322 T 433.714 123.658 T 578.286 110.163 T 722.857 119.371 T 867.429 107.94 T 1012 78.7791 L 1012 0 Z" fill="url(#lg-0.8279266948992363)" opacity="0.4" style="opacity:0.4;animation-play-state:paused" ></path>
<path d="M 0 0 L 0 120.969 Q 72.2857 160.874 144.571 133.217 T 289.143 119.493 T 433.714 110.878 T 578.286 88.1231 T 722.857 75.0985 T 867.429 82.2634 T 1012 114.546 L 1012 0 Z" fill="url(#lg-0.8279266948992363)" opacity="0.4" style="opacity:0.4;animation-play-state:paused" ></path>
<path d="M 0 0 L 0 111.124 Q 72.2857 137.423 144.571 97.5456 T 289.143 110.177 T 433.714 135.354 T 578.286 87.9934 T 722.857 104.401 T 867.429 109.015 T 1012 90.3396 L 1012 0 Z" fill="url(#lg-0.8279266948992363)" opacity="0.4" style="opacity:0.4;animation-play-state:paused" ></path>
<path d="M 0 0 L 0 107.575 Q 72.2857 185.944 144.571 151.557 T 289.143 128.782 T 433.714 95.294 T 578.286 129.399 T 722.857 120.112 T 867.429 63.2715 T 1012 103.462 L 1012 0 Z" fill="url(#lg-0.8279266948992363)" opacity="0.4" style="opacity:0.4;animation-play-state:paused" ></path>
<path d="M 0 0 L 0 116.749 Q 72.2857 157.198 144.571 127.257 T 289.143 107.488 T 433.714 98.6257 T 578.286 100.348 T 722.857 126.426 T 867.429 76.5378 T 1012 79.8241 L 1012 0 Z" fill="url(#lg-0.8279266948992363)" opacity="0.4" style="opacity:0.4;animation-play-state:paused" ></path></g></svg>